<svg xmlns="http://www.w3.org/2000/svg" width="58" height="58" viewBox="0 0 58 58">
  <g id="bankomat" transform="translate(-792 -997)">
    <g id="Ellipse_7" data-name="Ellipse 7" transform="translate(792 997)" fill="none" stroke="#32d192" stroke-width="1">
      <circle cx="29" cy="29" r="29" stroke="none"/>
      <circle cx="29" cy="29" r="28.5" fill="none"/>
    </g>
    <g id="atm_1_" data-name="atm (1)" transform="translate(757.156 1016)">
      <path id="Path_486" data-name="Path 486" d="M216.371,126.742a.371.371,0,1,0-.371-.371A.371.371,0,0,0,216.371,126.742Z" transform="translate(-154.063 -121.324)" fill="#32d192" stroke="#32d192" stroke-width="0.3"/>
      <path id="Path_487" data-name="Path 487" d="M216.371,42.449a.371.371,0,0,0,.371-.371V40.371a.371.371,0,0,0-.742,0v1.707A.371.371,0,0,0,216.371,42.449Z" transform="translate(-154.063 -38.516)" fill="#32d192" stroke="#32d192" stroke-width="0.3"/>
      <path id="Path_488" data-name="Path 488" d="M176.371,43.934a.371.371,0,0,0,.371-.371V40.371a.371.371,0,0,0-.742,0v3.191A.371.371,0,0,0,176.371,43.934Z" transform="translate(-115.547 -38.516)" fill="#32d192" stroke="#32d192" stroke-width="0.3"/>
      <path id="Path_489" data-name="Path 489" d="M56.761,8.533A2.581,2.581,0,0,0,56,10.369v8.259a.371.371,0,0,0,.371.371h6.68a.371.371,0,0,0,.371-.371V16.437a3.622,3.622,0,0,0,2.227-3.346v-.25h2.6a.371.371,0,0,0,.371-.371v-9.5h.742a1.484,1.484,0,0,0,0-2.969H58.227a1.484,1.484,0,0,0,0,2.969h.742V6.324Zm8.146,4.558a2.881,2.881,0,0,1-1.973,2.737.371.371,0,0,0-.254.352v2.078H56.742V10.369a1.843,1.843,0,0,1,.543-1.312l1.683-1.683v2.1l-.2.2a.371.371,0,0,0,.525.525l2.6-2.605a1.167,1.167,0,0,1,1.485-.179,1.113,1.113,0,0,1,.145,1.7s-1.5,1.5-2.191,2.192a1.089,1.089,0,0,0-.27,1.109,2.6,2.6,0,0,1-.756,2.748.371.371,0,0,0,.491.557,3.331,3.331,0,0,0,1.112-2.876h2.99Zm0-.993V.742h1.484V12.1Zm-3.146,0a.355.355,0,0,1,.105-.271c.695-.7,2.19-2.192,2.19-2.192.038-.038.074-.078.109-.12V12.1Zm2.4-4.966a1.892,1.892,0,0,0-.345-.321,1.914,1.914,0,0,0-2.444.256L59.711,8.732V6.478h0V.742h4.453ZM67.875,12.1h-.742V.742h.742ZM70.1,1.484a.742.742,0,0,1-.742.742h-.742V.742h.742A.743.743,0,0,1,70.1,1.484Zm-11.875.742a.742.742,0,0,1,0-1.484h.742V2.227Z" fill="#32d192" stroke="#32d192" stroke-width="0.3"/>
    </g>
  </g>
</svg>
