<svg xmlns="http://www.w3.org/2000/svg" width="51" height="50" viewBox="0 0 51 50">
  <g id="bus" transform="translate(-1272 -403)">
    <ellipse id="Ellipse_3" data-name="Ellipse 3" cx="25.5" cy="25" rx="25.5" ry="25" transform="translate(1272 403)" fill="#404156"/>
    <g id="bus_1_" data-name="bus (1)" transform="translate(1285 383.271)">
      <g id="Group_15" data-name="Group 15" transform="translate(16.306 46.723)">
        <g id="Group_14" data-name="Group 14">
          <path id="Path_499" data-name="Path 499" d="M298.537,265.05h-2.985a.554.554,0,0,0-.553.553v2.045a.554.554,0,0,0,.553.553h2.985a.554.554,0,0,0,.553-.553V265.6A.554.554,0,0,0,298.537,265.05Zm-.553,2.045h-1.879v-.94h1.879Z" transform="translate(-295 -265.05)" fill="#fff"/>
        </g>
      </g>
      <g id="Group_17" data-name="Group 17" transform="translate(4.588 46.723)">
        <g id="Group_16" data-name="Group 16">
          <path id="Path_500" data-name="Path 500" d="M86.537,265.05H83.553A.554.554,0,0,0,83,265.6v2.045a.554.554,0,0,0,.553.553h2.985a.554.554,0,0,0,.553-.553V265.6A.554.554,0,0,0,86.537,265.05Zm-.553,2.045H84.105v-.94h1.879Z" transform="translate(-83 -265.05)" fill="#fff"/>
        </g>
      </g>
      <g id="Group_19" data-name="Group 19" transform="translate(9.728 48.658)">
        <g id="Group_18" data-name="Group 18" transform="translate(0 0)">
          <path id="Path_501" data-name="Path 501" d="M180.975,300.05h-4.422a.553.553,0,0,0,0,1.105h4.422a.553.553,0,0,0,0-1.105Z" transform="translate(-176 -300.05)" fill="#fff"/>
        </g>
      </g>
      <g id="Group_21" data-name="Group 21" transform="translate(9.728 47.11)">
        <g id="Group_20" data-name="Group 20" transform="translate(0 0)">
          <path id="Path_502" data-name="Path 502" d="M180.975,272.05h-4.422a.553.553,0,0,0,0,1.105h4.422a.553.553,0,0,0,0-1.105Z" transform="translate(-176 -272.05)" fill="#fff"/>
        </g>
      </g>
      <g id="Group_23" data-name="Group 23" transform="translate(0 33.95)">
        <g id="Group_22" data-name="Group 22" transform="translate(0 0)">
          <path id="Path_503" data-name="Path 503" d="M23.552,42.3H22.22V36.288a2.268,2.268,0,0,0-2.255-2.272L5.019,33.95a2.253,2.253,0,0,0-2.261,2.244V42.3H1.426A1.421,1.421,0,0,0,0,43.705v1.719a1.423,1.423,0,0,0,1.432,1.4H2.764v3.626a2.283,2.283,0,0,0,1.105,1.973v1.343a1.427,1.427,0,0,0,1.437,1.4H7.158a1.4,1.4,0,0,0,1.409-1.4V52.748h7.849v1.028a1.4,1.4,0,0,0,1.409,1.4h1.852a1.427,1.427,0,0,0,1.437-1.4V52.433A2.283,2.283,0,0,0,22.22,50.46V46.834h1.332a1.423,1.423,0,0,0,1.432-1.4V43.705A1.423,1.423,0,0,0,23.552,42.3ZM2.764,45.728H1.432a.318.318,0,0,1-.326-.3V43.705a.318.318,0,0,1,.326-.3H2.764Zm1.1-8.921v-.586A1.167,1.167,0,0,1,4.2,35.4a1.151,1.151,0,0,1,.813-.337h.006l14.94.066a1.155,1.155,0,0,1,1.15,1.161v.6Zm3.6,16.969a.3.3,0,0,1-.3.3H5.306a.32.32,0,0,1-.332-.3V52.731c.055,0,.033.017.044.017H7.462Zm12.547,0a.32.32,0,0,1-.332.3H17.826a.294.294,0,0,1-.3-.293V52.748h2.443c.006,0-.011-.017.044-.017Zm1.105-3.322a1.168,1.168,0,0,1-1.15,1.188H5.019a1.17,1.17,0,0,1-1.15-1.183V44.507l17.245.077Zm-14.8-7.042a1.779,1.779,0,0,1,3.361.017Zm14.8.066-10.3-.044a2.875,2.875,0,0,0-5.632-.028L3.869,43.4V37.913l17.245.077Zm2.764,1.951a.318.318,0,0,1-.326.3H22.22V43.407h1.332a.318.318,0,0,1,.326.3Z" transform="translate(0 -33.95)" fill="#fff"/>
        </g>
      </g>
    </g>
  </g>
</svg>
