<svg id="calendar" xmlns="http://www.w3.org/2000/svg" width="13.644" height="13.644" viewBox="0 0 13.644 13.644">
  <path id="Path_5" data-name="Path 5" d="M11.885,1.066H10.66V.426a.426.426,0,0,0-.853,0v.64H3.837V.426a.426.426,0,1,0-.853,0v.64H1.759A1.761,1.761,0,0,0,0,2.825v9.061a1.761,1.761,0,0,0,1.759,1.759H11.885a1.761,1.761,0,0,0,1.759-1.759V2.825A1.761,1.761,0,0,0,11.885,1.066ZM1.759,1.919H2.985v.426a.426.426,0,1,0,.853,0V1.919H9.807v.426a.426.426,0,0,0,.853,0V1.919h1.226a.907.907,0,0,1,.906.906V3.837H.853V2.825A.907.907,0,0,1,1.759,1.919ZM11.885,12.791H1.759a.907.907,0,0,1-.906-.906V4.69H12.791v7.2A.907.907,0,0,1,11.885,12.791Z" fill="#747474"/>
</svg>
