<svg xmlns="http://www.w3.org/2000/svg" width="51" height="51" viewBox="0 0 51 51">
  <g id="globe" transform="translate(0.279)">
    <circle id="Ellipse_1" data-name="Ellipse 1" cx="25.5" cy="25.5" r="25.5" transform="translate(-0.279)" fill="#404156"/>
    <g id="worldwide_1_" data-name="worldwide (1)" transform="translate(12.818 13.568)">
      <g id="Group_2" data-name="Group 2" transform="translate(0 0)">
        <path id="Path_474" data-name="Path 474" d="M11.966.05A11.959,11.959,0,0,0,.97,7.3l-.149.049.058.173A11.958,11.958,0,1,0,11.966.05Zm9.38,17.988-.614-.614V16a.4.4,0,0,0-.04-.178l-1.555-3.1v-1.5a.4.4,0,0,0-.177-.332l-1.2-.8a.4.4,0,0,0-.319-.055l-1.465.366-2.46-1.056-.338-2.371.938-.938h2.013l.678,1.018a.4.4,0,0,0,.266.172l2.392.4a.4.4,0,0,0,.191-.015l2.2-.734A11.122,11.122,0,0,1,21.346,18.038ZM19.7,3.978l-.648.432-1.807-.362-1.172-.39a.391.391,0,0,0-.222-.009l-1.482.37L13.72,3.8,14.2,2.84H15.55a.4.4,0,0,0,.178-.042l1.379-.69A11.2,11.2,0,0,1,19.7,3.978ZM7.6,1.737l.957.638a.4.4,0,0,0,.156.061l1.932.322-.189.564-1.007.336a.4.4,0,0,0-.216.173L8.085,5.739l-1.839,1.1L3.535,7.23a.4.4,0,0,0-.343.394v1.2a.4.4,0,0,0,.117.282l.68.68v.685L2.331,9.361l-.6-1.8A11.226,11.226,0,0,1,7.6,1.737ZM6.461,14.807l-1.8-.361-.67-1.336v-.937l1.485-1.485.55,1.1a.4.4,0,0,0,.357.22H8.946l1.08,1.8a.4.4,0,0,0,.342.193h1.108L11.2,15.4,9.687,16.909a.4.4,0,0,0-.117.282v1L8.135,19.264a.4.4,0,0,0-.159.319v1.44l-.5-.164-.7-1.751V15.2A.4.4,0,0,0,6.461,14.807Zm-1.2,6.128A11.159,11.159,0,0,1,1.287,8.75l.331.993a.4.4,0,0,0,.157.206l1.987,1.325-.453.454a.4.4,0,0,0-.117.282v1.2a.4.4,0,0,0,.042.178l.8,1.595a.4.4,0,0,0,.279.212l1.674.334v3.66a.4.4,0,0,0,.028.148l.8,1.993a.4.4,0,0,0,.244.23l1.2.4a.392.392,0,0,0,.124.021.4.4,0,0,0,.4-.4V19.782l1.435-1.076a.4.4,0,0,0,.159-.319V17.356l1.478-1.478a.4.4,0,0,0,.109-.2l.4-1.993a.4.4,0,0,0-.391-.477H10.593l-1.08-1.8a.4.4,0,0,0-.342-.193H6.628L5.943,9.837a.4.4,0,0,0-.293-.215.391.391,0,0,0-.346.112l-.517.515V9.617a.4.4,0,0,0-.117-.282l-.68-.68V7.969l2.448-.35a.4.4,0,0,0,.149-.053l1.993-1.2a.4.4,0,0,0,.136-.136l1.12-1.867,1.056-.352a.4.4,0,0,0,.252-.252l.4-1.2a.4.4,0,0,0-.313-.518L8.923,1.665l-.405-.27a11.131,11.131,0,0,1,7.666.285l-.728.364h-1.5a.4.4,0,0,0-.359.22l-.8,1.595a.4.4,0,0,0,.231.556l1.2.4a.391.391,0,0,0,.222.009l1.482-.37,1.086.362a.293.293,0,0,0,.048.013l1.993.4a.4.4,0,0,0,.3-.059l.907-.605a11.246,11.246,0,0,1,1.2,1.6L19.5,6.816l-2.123-.354-.7-1.052a.4.4,0,0,0-.33-.177H13.955a.4.4,0,0,0-.282.117l-1.2,1.2a.4.4,0,0,0-.113.338l.4,2.79a.4.4,0,0,0,.239.31l2.79,1.2a.394.394,0,0,0,.254.02l1.423-.356.87.581v1.381a.4.4,0,0,0,.04.178l1.555,3.1v1.5a.4.4,0,0,0,.117.282l.834.834A11.159,11.159,0,0,1,5.263,20.935Z" transform="translate(0 -0.05)" fill="#fff"/>
      </g>
    </g>
  </g>
</svg>
