<svg xmlns="http://www.w3.org/2000/svg" width="17" height="17" viewBox="0 0 17 17">
  <path id="info" d="M9.063.563a8.5,8.5,0,1,0,8.5,8.5A8.5,8.5,0,0,0,9.063.563Zm0,3.77a1.44,1.44,0,1,1-1.44,1.44A1.44,1.44,0,0,1,9.063,4.333Zm1.919,8.706a.411.411,0,0,1-.411.411H7.554a.411.411,0,0,1-.411-.411v-.823a.411.411,0,0,1,.411-.411h.411V9.611H7.554A.411.411,0,0,1,7.143,9.2V8.377a.411.411,0,0,1,.411-.411H9.748a.411.411,0,0,1,.411.411V11.8h.411a.411.411,0,0,1,.411.411Z" transform="translate(-0.563 -0.563)" fill="#32d192"/>
</svg>
