<svg xmlns="http://www.w3.org/2000/svg" width="14.089" height="14.086" viewBox="0 0 14.089 14.086">
  <path id="instagram" d="M7.041,5.669a3.611,3.611,0,1,0,3.611,3.611A3.606,3.606,0,0,0,7.041,5.669Zm0,5.959A2.348,2.348,0,1,1,9.389,9.281,2.352,2.352,0,0,1,7.041,11.629Zm4.6-6.107a.842.842,0,1,1-.842-.842A.84.84,0,0,1,11.642,5.521Zm2.392.855A4.169,4.169,0,0,0,12.9,3.425,4.2,4.2,0,0,0,9.945,2.287c-1.163-.066-4.649-.066-5.812,0A4.19,4.19,0,0,0,1.182,3.422,4.182,4.182,0,0,0,.044,6.373c-.066,1.163-.066,4.649,0,5.812a4.169,4.169,0,0,0,1.138,2.951,4.2,4.2,0,0,0,2.951,1.138c1.163.066,4.649.066,5.812,0A4.169,4.169,0,0,0,12.9,15.136a4.2,4.2,0,0,0,1.138-2.951c.066-1.163.066-4.646,0-5.809Zm-1.5,7.056a2.377,2.377,0,0,1-1.339,1.339,15.524,15.524,0,0,1-4.152.283,15.645,15.645,0,0,1-4.152-.283A2.377,2.377,0,0,1,1.55,13.433a15.524,15.524,0,0,1-.283-4.152A15.645,15.645,0,0,1,1.55,5.129,2.377,2.377,0,0,1,2.889,3.79a15.524,15.524,0,0,1,4.152-.283,15.645,15.645,0,0,1,4.152.283,2.377,2.377,0,0,1,1.339,1.339,15.524,15.524,0,0,1,.283,4.152A15.515,15.515,0,0,1,12.532,13.433Z" transform="translate(0.005 -2.238)" fill="#fff"/>
</svg>
