<svg xmlns="http://www.w3.org/2000/svg" width="75.656" height="57.825" viewBox="0 0 75.656 57.825">
  <g id="Logo_white" data-name="Logo white" transform="translate(0 0)">
    <path id="Path_504" data-name="Path 504" d="M3643.288,2953.666l-.018,1.179c.565.075,1.116.093,1.678.155.744.083.817.221,1.1-.048.089-.085.143-.138.208-.2-.375-.312-.231-.123-.362-.638a2.916,2.916,0,0,1-.083-.975,6.046,6.046,0,0,0,.8-.785c.441-.353,1.048.222,1.436-.376.335-.516-.037-.907.587-.733.862.241.482.063.689.6l.233,0c-.018-.282-.106-.219-.184-.445-.309-.459-.255-.316-.575-.6-.006-.006-.024-.012-.029-.03s-.02-.02-.029-.03c.249-.328.351-.042.973-.04l.136-.405a4.484,4.484,0,0,1,.563.584c.309.31.313.239.775.219.371.58.055.555.765.793h.26a1.265,1.265,0,0,1,.708-.013c.237.091.318.38.362.3.006-.011.025.018.037.028a1.526,1.526,0,0,0-.116.393c-.054.236-.05.1-.144.335.306.153.621.262.755.56l-.407,0c-.047.21-.007.168.066.4l.114.176c-.095.26-.182.167-.188.584.146.209.409.284.635.431.769.5.422.163,1.133.153l.881.171c.417.178.349.268.754-.307a1.617,1.617,0,0,1,.415.134c.163.078.178.063.244.2.75.141.56.9.818,1.535.523,1.277.711.333.853,1.54.109.416-.111.57.468,1.057.144.121.187.115.265.245a4.539,4.539,0,0,1,.993.664c.254.187.744.443.885.706.2.088.311.31.488.485.124.123.436.316.471.413a1.7,1.7,0,0,1,.5.321c.243.169.358.058.615.033,1.031,1.092.893.69,1.525,1.1l.5.39c.115.094.116.034.135.184.4.143.646.51,1.024.631.452.145.512-.347,1.166.143.108.043.293.111.352.227.635.3-.063.079.914.343.011.313-.037.26-.154.452a1.113,1.113,0,0,0-.129.529c-.249,1.844.812.408,1.489,1.147a1.84,1.84,0,0,1,.3.338,1.262,1.262,0,0,0,.644-.236c.354.244-.013.038.507.135.258.049-.061.021.243.052.149-.418-.2-1,.693-1.618.134-.7.206-.351.486-.669a.758.758,0,0,0,.156-.855c-.186-.263-.367-.192-.532-.629a1.159,1.159,0,0,1-.043-.853l.159-.207c.031-.044.074,0,.069-.19-.017-.608-.695-.365-.918-.376-.337-.018-.275-.177-.282-.485l-.073,0c-.288-.126-.5-.1-.7-.259,0-.206.063-.233.113-.426.282-1.077,1.126-.666,1.689-.563a3.946,3.946,0,0,0,.958.11,1.736,1.736,0,0,0,.407-.981c.3,0,.043-.058.269.1.03-.106.019-.145.132-.194l.188-.03c-.08-.244-.186-.339-.23-.491l.5-.094c-.05-.6-.671.1-.916-.292a5.791,5.791,0,0,1,.824-.156c.42-.047.342.216.837.074-.08-.247-.092-.166-.007-.291.247-.361-.076.24.084-.095a2.732,2.732,0,0,0-.233-.7c.106-.185.035-.065.22-.175.041-.435-.035-.376.245-.616a.792.792,0,0,1,.542.519c.082.008.039-.034.1.043.314-.119.191-.174.52-.3,1.122-.436,1.016-.418,1.255-.969.318.09.4.4.677.583-.123.187-.047-.047-.111.208l.319.184a1.841,1.841,0,0,1-.942.681c-.038.147.019.33-.023.475l.308.021.334.477a11.136,11.136,0,0,0,1.415-.238c.04-.013.165-.215.573.1.44.344.407.136.52.059.061.157.011.134.119.276.445-.174-.016-.258.864-.295l-.173-.216c.595-.29.068-.562.782-.3.51.186.373-.172.252-.42l-.068-.149a2.7,2.7,0,0,1,.608.29c.4-.225-.1-.1.383-.212l.058-.3a1.987,1.987,0,0,0,.914-.43c-.106-.252.028-.008-.221-.2l-.066-.058a1.562,1.562,0,0,1-.82.011l-.114-.035c-.005,0-.02-.008-.024-.02s-.017-.013-.02-.022c-.231-.115-.065-.022-.219-.172a1.882,1.882,0,0,0-.148-.141c-.136-.111-.228-.157-.353-.245a.386.386,0,0,0-.038.022l-.354.148c.1-.168.016-.336-.011-.56-.247-.03-.264.039-.59,0l-.159-.069a.77.77,0,0,0-.194-.664l-.179-.139c-.145-.179.086-.094-.169-.257-.372.186.166.291-.24.767l-.35-.144c0,.3-.041.442-.047.689-.167-.094-.351,0-.388-.175,0-.021-.017-.028-.027-.04-.4.3-.506-.069-1.095-.22,0-.313-.007-.5-.288-.688a3.863,3.863,0,0,1-.486.182c-.369-.286-.482-.249-.682-.415.149-.2.151-.172.373-.311.883-.553.191-.579,1.2-.833.121-.44.1-.265.759-.611a1.146,1.146,0,0,0,.362-.2c-.118-.226-.115-.123-.235-.3-.219-.036-.095.031-.153-.118-.434.039-.235.085-.819.318-.384.154-.445.6-.481.512,0-.009-.019.02-.031.027a.887.887,0,0,1-.217-.231c-.181.022-.146.031-.337.064l-.147.227c-.431.526-.877,1.023-1.535.96-.219.252-.7.318-.729.68l-.215,0a.172.172,0,0,1-.034.015l-.15.061a1.366,1.366,0,0,0-.156.079c-.037.02-.106.06-.151.086l-.152.1c-.037.693.045.41-.435.723-.113.073.011.138-.229.1-.215.413-.017.254-.37.525-.4.307-.035.634-.063.993-.5.232-1.058-.341-1.374-.584.159-.376.229-.213.218-.76a.256.256,0,0,0-.042-.018l-.042-.018c-.175-.087-.2-.113-.316-.438l-1.875.089c-1.164.019-1.142.179-1.332-.585-.214-.96-.2-1.4-.327-2.1l-1.214-.061c0-.3-.01-.609,0-.9a3.726,3.726,0,0,1,.142-.7c.026-.176.116-1.439.14-1.481-.118-.085-.22-.01-.392.07-.146.068-.279.126-.412.179-.943-2.122-.746-1.22-1.407-1.914l-.427-.515-.033-.033-.073-.066c-.357.185-.4-.047-.74.079.366.465.327-.093.787.525-.54-.321-.376-.168-.819.01-.2.082-.016.058-.318.107.087-.1.48-.369.019-.5a20.565,20.565,0,0,1-3.174-.2c-.652-.011-2.956.486-3.154.386l-1.526-1.671a1.211,1.211,0,0,1-.172-.239c-.2-.278-.341-.212-.469-.7-.114-.433-.7-.7-1.291-1.105-.173-.119-.318-.2-.5-.319-1.257-.862-2.436-1.623-3.643-2.431-.231-.154-.455-.3-.674-.461l-.083-.07c-.542.049-2.621.7-3.31.9-.131.039-3.038.866-3.111.969-.17.243-.047,10.219-.192,10.807Z" transform="translate(-3624.421 -2925.773)" fill="#fff" fill-rule="evenodd"/>
    <path id="Path_505" data-name="Path 505" d="M7692.968,1602.865a26.609,26.609,0,0,1,9.74,3.936,20.3,20.3,0,0,1,3.8,3.323c.149.183.331.363.519.576.477.531.5.656.879,1.125,2.4,3.645,3.816,7.059,3.366,11.648-.732,7.465-6.571,11.666-13.955,12.921a17.026,17.026,0,0,1-1.7.192c-1.145.083-2.363.089-3.628.089a9.4,9.4,0,0,0-.957,3.644c.21.246,1.117.225,1.541.225.547,0,1.218.032,1.75-.015l1.031-1.589c.239.006.461-.059.607.012a10.741,10.741,0,0,1-.24,1.518l.144.1c.081.05.05.014.133.075a.974.974,0,0,1-.008.329c-.044.13-.1.12-.226.2.074.288.167.505.246.77.182.605.206.413.209.649,0,.118.009.056-.025.124-.516.255-.841-.2-1.068-.475a9.343,9.343,0,0,1-.722-.9l-2.7.378c-.325.063-.6.079-.588.445a12.921,12.921,0,0,0,1.191,2.931l.184.366a27.946,27.946,0,0,0,2.9-.36c.918-.157,1.737-.306,2.66-.546.792-.205,1.663-.445,2.479-.731a30.69,30.69,0,0,0,5.542-2.526c.733-.453,1.208-.708,1.957-1.252a23.287,23.287,0,0,0,8.11-9.709l.653-1.737a17.8,17.8,0,0,0,.777-6.411,18.432,18.432,0,0,0-1.09-5.162c-1.981-5.562-7.837-10.45-13.155-12.614-4.917-2-9.515-2.313-14.745-2.137C7688.677,1602.375,7692.428,1602.757,7692.968,1602.865Z" transform="translate(-7648.814 -1593.942)" fill="#fff" fill-rule="evenodd"/>
    <path id="Path_506" data-name="Path 506" d="M1226.4,940.55l-1.193,1.962A18.365,18.365,0,0,0,1223,952.68a21.622,21.622,0,0,0,.435,2.7c1.172,5.374,4.916,9.213,9.325,12.418,2.755,1.995,7.873,3.6,10.909,4.1,1.631.271,7.244.734,8.282.3-.323-.033-1.565-.15-1.972-.2a29.023,29.023,0,0,1-7.4-1.794c-4.97-2-9.69-5.708-11.8-10.724a16.045,16.045,0,0,1-1.39-9.207,13.47,13.47,0,0,1,1.6-4.658c1.567-2.917,3.962-4.554,6.85-6a24.5,24.5,0,0,1,10.782-1.785,17.493,17.493,0,0,0,.928-3.154c.073-.412-.019-.615-.366-.66-.649-.084-2.3-.065-2.972-.056a9.862,9.862,0,0,1-1,1.523.909.909,0,0,1-.626.088,7.689,7.689,0,0,1,.269-1.579c-.114-.049-.208-.091-.276-.127l-.056-.424a.535.535,0,0,0,.28-.118c-.141-.269-.266-.82-.4-1.146-.291-.722.533-.393.613-.323s.111.132.193.217.126.116.207.2a8.463,8.463,0,0,1,.746.868,10.982,10.982,0,0,0,1.959-.24,9.491,9.491,0,0,0,.946-.171c.345-.088.431-.2.314-.615a9.532,9.532,0,0,0-.6-1.573,13.436,13.436,0,0,0-.737-1.453c-.63-.2-4.972.729-5.827.938a29.274,29.274,0,0,0-5.058,1.784,30.949,30.949,0,0,0-4.9,2.811l-2.785,2.3a23.393,23.393,0,0,0-3.09,3.626Z" transform="translate(-1216.614 -924.259)" fill="#fff" fill-rule="evenodd"/>
    <path id="Path_507" data-name="Path 507" d="M360.113,811.534c-.245.092-.536.167-.829.265-.233.117-2.265.86-3.166,1.29A24.61,24.61,0,0,0,344.749,824a23.379,23.379,0,0,0-2.651,11.14,18.907,18.907,0,0,0,.186,2.891c.23-.061.332-.083.533-.131a18.524,18.524,0,0,0,3.39-1.067c-.02-.331-.166-.924-.226-1.353a19.051,19.051,0,0,1,2.516-11.953,26.078,26.078,0,0,1,14.558-11.544,35.99,35.99,0,0,1,5.264-1.3,25.087,25.087,0,0,0,2.818-.453,25.39,25.39,0,0,0-5.522.1,31.581,31.581,0,0,0-5.5,1.2Z" transform="translate(-340.327 -805.932)" fill="#fff" fill-rule="evenodd"/>
    <path id="Path_508" data-name="Path 508" d="M8645.572,4706.922a9.234,9.234,0,0,0,.193,1.4,19.306,19.306,0,0,1-3.657,13.955c-.256.336-.449.628-.7.933a24.828,24.828,0,0,1-3.188,3.354l-1.835,1.435a30.024,30.024,0,0,1-12.872,5.116l-2.835.407a12.367,12.367,0,0,0,2.2.159c.775,0,1.546-.041,2.268-.1a30.828,30.828,0,0,0,10.729-2.92,24.049,24.049,0,0,0,11.321-10.538c2.535-4.852,2.6-9.111,2.264-14.312C8648.969,4705.816,8646.29,4706.717,8645.572,4706.922Z" transform="translate(-8576.078 -4681.464)" fill="#fff" fill-rule="evenodd"/>
    <path id="Path_509" data-name="Path 509" d="M7064.641,8098.454c-.1.157-.162.229-.267.388s-.151.252-.223.354c-.232.331-.845,1.306-1.033,1.479-.849.175-2.354.056-2.828.668.229.267.441.245.812.314.626.092,1.533-.129,2.04-.017.255.057.344.341.519.531a3.617,3.617,0,0,1,.521.61l2.708,3.026a1.267,1.267,0,0,0,.521.33l.312.024a1.975,1.975,0,0,0-.328-.6,14.077,14.077,0,0,1-.854-1.6c-.14-.3-.319-.724-.427-1.027-.476-1.341-.323-1.5.683-1.667,2.921-.479,2.462-.595,3.337.392.314.354.395.672.78.668l-.461-1.517c.169-.078.2-.021.268-.181l-.306-.17.25-1.452c-.294-.009-.443.343-.7.743-.191.3-.375.605-.56.844l-2.993-.045c-.357-.01-.538-.1-.648-.37a8.466,8.466,0,0,1,.69-3.138,13.563,13.563,0,0,1,.581-1.454C7066.15,8095.792,7065.188,8097.547,7064.641,8098.454Z" transform="translate(-7023.763 -8053.705)" fill="#fff" fill-rule="evenodd"/>
    <path id="Path_510" data-name="Path 510" d="M5421.473,755.592c.149.58-.116.806-.6.9-.453.09-.873.154-1.293.211s-1.022.179-1.4.188c-.457.01-.372-.11-.849-.668-.337-.395-.507-.726-.869-.757a11.645,11.645,0,0,0,.479,1.494l-.282.163c.231.356.39-.069.195.717a6.812,6.812,0,0,0-.155.983c.3-.036.387-.265.686-.748.1-.167.179-.258.276-.424.415-.708.694-.44,2.217-.441.342,0,.6.049.937.048a.8.8,0,0,1,.719.236c.484,1.024-.723,3.178-.966,4.244l-.218.435c.631-.043.736-.363,1.042-.8a3.259,3.259,0,0,0,.195-.327c.278-.469.861-1.324,1.174-1.747.215-.29.392-.568.6-.884l.56-.822c.324-.474.2-.508.88-.568.7-.061,2.054-.052,2.273-.609-.741-.477-1.9-.249-2.935-.244-.132-.291-1.475-1.615-1.8-2.038-.476-.617-.979-1.131-1.5-1.717-.365-.413-.465-.728-1.166-.787,0,.208.057.2.177.378a13.747,13.747,0,0,1,1.628,3.574Z" transform="translate(-5388.437 -747.751)" fill="#fff" fill-rule="evenodd"/>
    <path id="Path_511" data-name="Path 511" d="M6684.571,434.743a5.8,5.8,0,0,1,.65-1.3c.022.368.165.812.237,1.228.133.762.014.472.542.8l1.085-2.252a1.362,1.362,0,0,0-.523-.249,6.127,6.127,0,0,1-.626,1.2c-.414-2.113-.2-1.522-.791-1.937l-1.122,2.27C6684.35,434.61,6684.288,434.71,6684.571,434.743Zm-14.741-4.084-.316-.093.094-.461.642.018a.456.456,0,0,1,.25.448Zm-.781-2.046-.1,2.333c.1.222.353.174.64.173a3.1,3.1,0,0,0,1.027-.038.613.613,0,0,0,.409-.884c-.108-.2-.163-.194-.313-.359.175-.106.125-.08.257-.261a.728.728,0,0,0,.015-.522C6670.779,428.508,6669.5,428.565,6669.049,428.613Zm1.33.6c.1.611-.322.388-.811.375a2.02,2.02,0,0,0,.049-.492l.4.049.362.068Zm1.74,1.639.029-.511c.947.024,1.153.35,1.2-.1.041-.381-.064-.322-.409-.352-.283-.025-.469-.051-.746-.086.1-.133.021-.145.1-.454.2.035,1.232.242,1.3.094,0-.01.028-.179.027-.191l-.044-.219c-.232-.161-1.458-.152-1.812-.3l-.326,2.484a10.081,10.081,0,0,0,1.223.179c.833.111.684.1.735-.443A6.148,6.148,0,0,0,6672.119,430.85Zm27.853,18.572c.218-.3-.085-.772.188-1.13.284,0,.334.133.353.362.027.341-.119.309-.013.6l.47.068a1.487,1.487,0,0,0-.31-1.473c-.946-.724-1.144.544-1.166,1.091-.018.434-.123.374-.256.346-.093-.02-.053-.008-.108-.069a.947.947,0,0,1-.109-.305c-.088-.6.289-.5-.143-.739l-.153-.1c-.006-.02-.024-.021-.035-.033-.42.36-.254,1.751.538,1.837C6699.6,449.918,6699.99,449.732,6699.971,449.422Zm-9.833-11.359.057.057,1.493-2.063a.878.878,0,0,1-.412-.329c-.227.273-.07.1-.41.532a11.907,11.907,0,0,0-1.115,1.553C6689.882,437.9,6689.967,437.949,6690.139,438.063ZM6676.318,432l.585.12c.053-.405.172-.85.248-1.224a5.605,5.605,0,0,0,.221-1.231l-.546-.12Zm-1.85-.994a.426.426,0,0,1,.348-.337l.3.652c.073.07.143.306.211.389.139.171.374.113.495.172.388.039.139.018.216-.058a12.466,12.466,0,0,1-.758-1.539l1.125-.793a.656.656,0,0,0-.887,0c-.1.076-.74.535-.819.637-.032-.058-.02.018-.035-.119-.019-.185.127-.655.127-.888l-.61-.051L6674,430.3a11.076,11.076,0,0,0-.183,1.219C6674.326,431.6,6674.437,431.839,6674.469,431Zm25.048,14.138-.43.16c.045.312.206.425.254.739l-.884.417a6.985,6.985,0,0,0-.888.424l.154.232a1.033,1.033,0,0,0,.158.247,8.941,8.941,0,0,0,.848-.379l.628-.3a.972.972,0,0,1,.278-.093c.09.2.2.4.31.64a1.586,1.586,0,0,0,.451-.216,3.678,3.678,0,0,0-.377-.906,3.091,3.091,0,0,1-.39-.931l-.027-.018-.025-.014Zm-19.327-14.78-.148.539.693.235c-.106.271-.2.589-.308.93a6.062,6.062,0,0,0-.3.94l.545.169.623-1.83.723.222.144-.51c-.249-.078-.483-.182-.723-.261-.19-.062-1.137-.354-1.25-.434Zm-.76,1.457a.788.788,0,0,0-.477-.7c-.13-.076-.277-.138-.374-.211s-.109-.076-.13-.158c-.058-.229.017-.185.037-.223.393-.145.6.221.818.35.095-.065.273-.22.388-.319-.473-.616-1.347-.841-1.752-.273a.736.736,0,0,0-.124.547c.066.585,1.1.693,1.02,1.05-.286.449-.895-.178-.993-.334a4.692,4.692,0,0,0-.422.259C6677.621,432.579,6679.43,432.99,6679.43,431.82Zm14.491,7.83.436-.5c.183.1.723.513.364.837C6694.413,440.27,6694.03,439.764,6693.921,439.65Zm-1.307.531.173.206c.13.066.075.072.242.135l.463-.48c.1.073.19.142.267.208a1.541,1.541,0,0,0,.3.246.8.8,0,0,0,.15.083.826.826,0,0,0,.4.056.876.876,0,0,0,.776-1.057c-.165-.55-.588-.674-.821-1.076-.069-.026-.148-.076-.188-.091a12.985,12.985,0,0,0-1.761,1.769Zm-9.523-7.946c.019.265.059.49.058.7a3.485,3.485,0,0,1-.567-.193l.509-.5Zm-1.241,1.352c.043-.179-.026-.046.112-.188l.2-.223a8.592,8.592,0,0,1,.995.336l-.014.611c.2.047.362.177.573.138l-.074-2.515c-.055-.238.029-.138-.175-.233-.04-.019-.231-.064-.308-.085l-1.909,1.945Zm6.86,2.214a3.06,3.06,0,0,1,.329-.261,2.071,2.071,0,0,0,.287-.184c-.036.213-.107.472-.147.724A2.829,2.829,0,0,1,6688.71,435.8Zm-1.461.347a2.42,2.42,0,0,1,.455.264,2.081,2.081,0,0,0,.461-.321l.885.58-.11.582a2.186,2.186,0,0,0,.527.3l.394-2.14a2.091,2.091,0,0,1,.128-.394c-.146-.321-.114-.32-.5-.413-.286.174-.6.431-.9.605A6.919,6.919,0,0,0,6687.25,436.148Zm-20.8-7.6-.013-.028,0,.548,1.255,0a13.95,13.95,0,0,1-1.157,1.327c-.225.242-.228.227-.187.648l2.106.054.007-.519-1.31-.06,1.14-1.292c.241-.239.158-.18.174-.6a10.718,10.718,0,0,0-2.02-.08Zm-1.169.047c-.174.126-.087-.008-.071.6.006.262.038.355.049.587.021.451-.011.8-.454.825s-.523-.264-.572-.724c-.038-.349-.056-.873-.06-1.231-.146-.005-.534-.016-.586.091l.064,1.269c.036.657.3,1.123,1.046,1.138a1.167,1.167,0,0,0,.825-.252c.442-.391.334-1.059.29-1.761l-.041-.589-.49.048Zm26.65,9.225a2.453,2.453,0,0,1,.456-.462l.313.229c.283.218.328.561.021.664C6692.434,438.349,6692.119,437.988,6691.935,437.82Zm-.83.993a2.071,2.071,0,0,0,.475-.565l.343.223-.087.944a1.111,1.111,0,0,0,.522.358l.1-.989c.595.069.639-.037.974-.393.356-1.024-.48-1.138-1.053-1.767-.068-.075-.03-.02-.07-.09l-.042.035L6690.8,438.3c-.092.123-.108.1-.089.2C6690.726,438.577,6691.02,438.76,6691.1,438.813Zm4.915,2.43a.678.678,0,0,1,.7.558c.2.921-1.255,1.293-1.449.347A.776.776,0,0,1,6696.02,441.244Zm-1.1-.056a1.277,1.277,0,0,0,.2,1.745l.094.084a1.324,1.324,0,0,0,1.422.121,1.278,1.278,0,0,0,.248-2.083C6696.246,440.355,6695.471,440.644,6694.92,441.187Zm3.373,2.881a.346.346,0,0,1,.094.35c-.049.153-.138.159-.272.214-.358-.12-.466-.375-.62-.655.19-.109.372-.245.564-.362C6698.151,443.84,6698.258,443.812,6698.293,444.068Zm-1.433,1.279c.082.254.215.4.308.629.194-.087.049.009.181-.135a7.21,7.21,0,0,1,.3-.775c.295.073.418.214.764.084a.838.838,0,0,0,.458-1.231c-.151-.328-.475-.982-.813-1.057a1.4,1.4,0,0,1-.5.375c-.2.114-.311.2-.5.322-.338.213-.635.369-.959.617l.27.5a3.775,3.775,0,0,1,.714-.408c.086.25.189.265.068.545a1.261,1.261,0,0,1-.292.532Z" transform="translate(-6629.115 -426.303)" fill="#fff" fill-rule="evenodd"/>
    <path id="Path_512" data-name="Path 512" d="M9949.876,5415.042l.214,0c.029-.361.511-.427.729-.68-.185-.139-.136-.09-.335,0-.24-.162.069.1-.053-.07l-.122-.166c-.3.114-.405.035-.7-.023a1.428,1.428,0,0,1,0,.817l.176.029c.312,0,.113-.009.124-.029C9949.77,5414.919,9949.9,5414.893,9949.876,5415.042Z" transform="translate(-9898.134 -5386.09)" fill="#fff" fill-rule="evenodd"/>
    <path id="Path_513" data-name="Path 513" d="M37.828,0c10.422,0,19.864,3.222,26.7,8.43,6.873,5.234,11.124,12.475,11.124,20.482S71.405,44.161,64.532,49.395c-6.84,5.209-16.281,8.43-26.7,8.43s-19.864-3.222-26.7-8.43C4.251,44.161,0,36.92,0,28.912S4.251,13.664,11.125,8.43C17.965,3.221,27.406,0,37.828,0ZM64,9.13C57.306,4.035,48.054.883,37.828.883S18.351,4.035,11.659,9.13C5,14.2.883,21.2.883,28.912S5,43.624,11.659,48.694c6.691,5.1,15.943,8.248,26.169,8.248S57.306,53.79,64,48.694c6.658-5.07,10.776-12.065,10.776-19.782S70.655,14.2,64,9.13Z" fill="#fff" fill-rule="evenodd"/>
    <path id="Path_514" data-name="Path 514" d="M653.994,6615.859l-.16-.533.493-.377-.293-.979-.617-.036-.157-.523,2.726.216.156.523Zm.7-1.194.8-.61-1-.059Zm-.568,1.45,2.327-1.042.211.471-1.031.461,1.456.488.283.631-1.3-.472-1.008,1.559-.272-.608.806-1.129-.558-.2-.7.315Zm1.714,1.784.3.4a.612.612,0,0,0-.221.348.553.553,0,0,0,.092.38.574.574,0,0,0,.283.265.313.313,0,0,0,.275-.021.233.233,0,0,0,.1-.125.417.417,0,0,0,0-.215c-.013-.062-.052-.2-.117-.408a1.388,1.388,0,0,1-.083-.626.676.676,0,0,1,.688-.563.69.69,0,0,1,.386.137,1.265,1.265,0,0,1,.336.382,1.062,1.062,0,0,1,.192.726.753.753,0,0,1-.353.511l-.283-.432a.438.438,0,0,0,.169-.267.51.51,0,0,0-.094-.322.578.578,0,0,0-.26-.25.189.189,0,0,0-.178.013.2.2,0,0,0-.093.146,1.334,1.334,0,0,0,.1.492,2.452,2.452,0,0,1,.13.568.712.712,0,0,1-.076.375.758.758,0,0,1-.294.3.747.747,0,0,1-.414.109.729.729,0,0,1-.421-.147,1.446,1.446,0,0,1-.367-.426,1.1,1.1,0,0,1-.194-.75.967.967,0,0,1,.395-.6Zm1.2,1.963.338.375a.61.61,0,0,0-.189.366.552.552,0,0,0,.126.37.574.574,0,0,0,.306.239.313.313,0,0,0,.272-.045.232.232,0,0,0,.093-.134.417.417,0,0,0-.021-.213c-.018-.061-.07-.193-.153-.4a1.387,1.387,0,0,1-.139-.616.675.675,0,0,1,.635-.622.689.689,0,0,1,.4.1,1.26,1.26,0,0,1,.368.35,1.061,1.061,0,0,1,.256.706.756.756,0,0,1-.306.541l-.32-.405a.442.442,0,0,0,.145-.282.513.513,0,0,0-.122-.312.581.581,0,0,0-.281-.225.187.187,0,0,0-.176.029.2.2,0,0,0-.079.154,1.336,1.336,0,0,0,.142.481,2.473,2.473,0,0,1,.181.554.717.717,0,0,1-.042.381.8.8,0,0,1-.669.468.73.73,0,0,1-.433-.109,1.432,1.432,0,0,1-.4-.392,1.1,1.1,0,0,1-.261-.73A.967.967,0,0,1,657.039,6619.862Zm.852,2.466,1.916-1.682.341.388-1.916,1.683Zm1.128,1.241.766-.751.4-1.7.423.431-.3,1.137,1.132-.287.415.423-1.711.369-.764.749Zm2.707,2.483-.419-.366.215-.582-.771-.671-.541.3-.412-.359,2.42-1.274.411.358-.9,2.594Zm-.048-1.382.352-.945-.879.486Zm1.745-.538.767.542a1.808,1.808,0,0,1,.367.319.844.844,0,0,1,.177.413,1.107,1.107,0,0,1-.04.478,1.883,1.883,0,0,1-.28.54,1.664,1.664,0,0,1-.377.4,1.117,1.117,0,0,1-.482.211.908.908,0,0,1-.412-.043,1.536,1.536,0,0,1-.4-.218l-.789-.559,1.472-2.081Zm.173.649-.974,1.378.313.221a1.4,1.4,0,0,0,.267.159.462.462,0,0,0,.23.032.524.524,0,0,0,.251-.123,1.638,1.638,0,0,0,.312-.351,1.517,1.517,0,0,0,.219-.4.578.578,0,0,0,.024-.285.488.488,0,0,0-.125-.235,2.338,2.338,0,0,0-.329-.263Zm1.027,1.767a1.632,1.632,0,0,1,.439-.5,1.2,1.2,0,0,1,.384-.177,1,1,0,0,1,.4-.026,1.4,1.4,0,0,1,.523.2,1.2,1.2,0,0,1,.591.767,1.568,1.568,0,0,1-1,1.664,1.341,1.341,0,0,1-1.544-.932,1.322,1.322,0,0,1,.208-.994Zm.463.26a.959.959,0,0,0-.169.667.69.69,0,0,0,.868.527.979.979,0,0,0,.514-.468.956.956,0,0,0,.174-.66.649.649,0,0,0-.326-.45.659.659,0,0,0-.553-.08A.967.967,0,0,0,665.086,6626.808Zm1.368,2.271,1.115-2.293.975.474a1.868,1.868,0,0,1,.5.322.584.584,0,0,1,.16.349.736.736,0,0,1-.075.41.681.681,0,0,1-.358.353.806.806,0,0,1-.555-.007,1.174,1.174,0,0,1,.153.312,2.871,2.871,0,0,1,.082.5l.062.583-.553-.27-.089-.662a3.5,3.5,0,0,0-.082-.455.4.4,0,0,0-.093-.163.853.853,0,0,0-.222-.14l-.094-.046-.466.958-.464-.226Zm1.107-1.1.343.167a1.971,1.971,0,0,0,.429.174.273.273,0,0,0,.177-.035.328.328,0,0,0,.131-.149.289.289,0,0,0-.1-.392c-.035-.024-.147-.081-.334-.172l-.361-.176-.283.583Zm1.229,2.206.953-2.341.478.194-.791,1.942,1.184.481-.163.4Zm1.994.785.859-2.4.486.174-.859,2.4-.486-.174Zm.955.342.758-2.434.493.153-.336,1.079,1.329-.77.661.206-1.214.662.5,1.787-.636-.2-.314-1.351-.523.283-.229.736-.493-.153Zm4.868-1.325.5.113-.352,1.576a1.639,1.639,0,0,1-.161.464.693.693,0,0,1-.343.29.9.9,0,0,1-.535.019.77.77,0,0,1-.521-.332.864.864,0,0,1-.065-.649l.488.05a.681.681,0,0,0-.005.314.319.319,0,0,0,.472.146.788.788,0,0,0,.158-.383Zm2.755,3.069-.549-.088-.125-.608-1.009-.163-.3.54-.539-.087,1.383-2.359.538.086Zm-.771-1.148-.2-.988-.49.876Zm1.038,1.17.256-2.537.769.077.28,1.776.624-1.684.771.077-.256,2.537-.475-.048.2-2-.7,1.947-.494-.05-.3-2.046-.2,2-.475-.048Zm2.944.252.107-2.547.516.022-.107,2.547Zm1.675.057.024-1.073-.9-1.5.6.013.58,1.022.609-1,.592.013-.968,1.459-.024,1.069-.516-.011Zm3.674-.071-.556.02-.241-.572-1.022.037-.191.587-.546.02.9-2.583.545-.019Zm-.979-.977-.388-.931-.31.956Zm1.561.917-.157-2.113-.753.055-.032-.429,2.017-.15.032.43-.749.056.157,2.112Zm1.577-.149-.287-2.534.513-.058.287,2.533Z" transform="translate(-649.88 -6579.195)" fill="#fff" fill-rule="evenodd"/>
  </g>
</svg>
