<svg id="mail" xmlns="http://www.w3.org/2000/svg" width="17.172" height="11.888" viewBox="0 0 17.172 11.888">
  <path id="Path_472" data-name="Path 472" d="M20.406,10.339l-4.442,4.524a.08.08,0,0,0,0,.116l3.108,3.311a.536.536,0,0,1,0,.76.538.538,0,0,1-.76,0l-3.1-3.3a.085.085,0,0,0-.12,0l-.755.768a3.324,3.324,0,0,1-2.369,1A3.39,3.39,0,0,1,9.554,16.49l-.726-.739a.085.085,0,0,0-.12,0l-3.1,3.3a.538.538,0,0,1-.76,0,.536.536,0,0,1,0-.76l3.108-3.311a.088.088,0,0,0,0-.116L3.515,10.339a.081.081,0,0,0-.14.058v9.052A1.325,1.325,0,0,0,4.7,20.77h14.53a1.325,1.325,0,0,0,1.321-1.321V10.4A.083.083,0,0,0,20.406,10.339Z" transform="translate(-3.375 -8.882)" fill="#f9f9f9"/>
  <path id="Path_473" data-name="Path 473" d="M12.312,15.433a2.244,2.244,0,0,0,1.614-.677L20.4,8.164a1.3,1.3,0,0,0-.817-.289H5.043a1.289,1.289,0,0,0-.817.289L10.7,14.756A2.244,2.244,0,0,0,12.312,15.433Z" transform="translate(-3.726 -7.875)" fill="#f9f9f9"/>
</svg>
