<svg xmlns="http://www.w3.org/2000/svg" width="58" height="58" viewBox="0 0 58 58">
  <g id="safe" transform="translate(-1092 -997)">
    <g id="Ellipse_8" data-name="Ellipse 8" transform="translate(1092 997)" fill="none" stroke="#32d192" stroke-width="1">
      <circle cx="29" cy="29" r="29" stroke="none"/>
      <circle cx="29" cy="29" r="28.5" fill="none"/>
    </g>
    <g id="safe-box" transform="translate(1112 1016)">
      <path id="Path_490" data-name="Path 490" d="M186.375,148.75a2.375,2.375,0,1,1,2.375-2.375A2.378,2.378,0,0,1,186.375,148.75Zm0-3.562a1.188,1.188,0,1,0,1.188,1.188A1.189,1.189,0,0,0,186.375,145.188Z" transform="translate(-177.172 -138.656)" fill="#32d192"/>
      <path id="Path_491" data-name="Path 491" d="M18.406,10.719V8.281a2.073,2.073,0,0,0,0-2.9V1.707A1.709,1.709,0,0,0,16.7,0H1.707A1.709,1.709,0,0,0,0,1.707V17.293A1.709,1.709,0,0,0,1.707,19H16.7a1.709,1.709,0,0,0,1.707-1.707V13.624a2.073,2.073,0,0,0,0-2.9Zm-.594-3.891a.892.892,0,0,1-.891.891h-.594V5.938h.594A.892.892,0,0,1,17.812,6.828ZM15.141,5.344v9.871a.52.52,0,0,1-.52.52H3.785a.52.52,0,0,1-.52-.52V3.785a.52.52,0,0,1,.52-.52H14.621a.52.52,0,0,1,.52.52Zm1.188,3.562h.594a2.083,2.083,0,0,0,.3-.022v1.231a2.083,2.083,0,0,0-.3-.022h-.594Zm0,2.375h.594a.891.891,0,0,1,0,1.781h-.594Zm.371,6.531H1.707a.52.52,0,0,1-.52-.52V1.707a.52.52,0,0,1,.52-.52H16.7a.52.52,0,0,1,.52.52V4.772a2.083,2.083,0,0,0-.3-.022h-.594V3.785a1.709,1.709,0,0,0-1.707-1.707H3.785A1.709,1.709,0,0,0,2.078,3.785v11.43a1.709,1.709,0,0,0,1.707,1.707H14.621a1.709,1.709,0,0,0,1.707-1.707V14.25h.594a2.083,2.083,0,0,0,.3-.022v3.065A.52.52,0,0,1,16.7,17.813Z" fill="#32d192"/>
      <path id="Path_492" data-name="Path 492" d="M128.594,259.563a.594.594,0,0,1-.594-.594v-2.375a.594.594,0,0,1,1.188,0v2.375A.594.594,0,0,1,128.594,259.563Z" transform="translate(-123.25 -246.5)" fill="#32d192"/>
    </g>
  </g>
</svg>
