<svg xmlns="http://www.w3.org/2000/svg" width="51" height="50" viewBox="0 0 51 50">
  <g id="table" transform="translate(0.279 -0.224)">
    <ellipse id="Ellipse_2" data-name="Ellipse 2" cx="25.5" cy="25" rx="25.5" ry="25" transform="translate(-0.279 0.224)" fill="#404156"/>
    <g id="XMLID_248_" transform="translate(12.818 12.818)">
      <g id="XMLID_1388_">
        <path id="XMLID_1393_" d="M125.564,209.7l2.009-2.009,3.119,3.119a.467.467,0,0,0,.661,0l1.2-1.2a.467.467,0,0,0,.09-.534l-2.1-4.353.352-.352a3.2,3.2,0,0,0,.83-3.071.467.467,0,0,0-.333-.333,3.2,3.2,0,0,0-3.071.83l-.352.352-4.351-2.1a.467.467,0,0,0-.534.09l-1.2,1.2a.467.467,0,0,0,0,.661L125,205.117l-2.009,2.009-1.349-.47a.467.467,0,0,0-.484.111l-1.039,1.039a.467.467,0,0,0,0,.661l4.105,4.105a.467.467,0,0,0,.661,0l1.039-1.039a.467.467,0,0,0,.111-.484Zm6.1-.519-.637.637-2.788-2.788,1.609-1.609Zm-.784-7.367a2.268,2.268,0,0,1-.642,1.894l-5.445,5.445-1.653.4.4-1.653,2.454-2.454,2.991-2.991A2.268,2.268,0,0,1,130.876,201.815Zm-8-.145.637-.637,3.758,1.815-1.609,1.609Zm-1.263,5.965.949.331-.316,1.3-1.134-1.134Zm2.943,3.946-1.134-1.134,1.3-.316.331.949Z" transform="translate(-114.375 -190.656)" fill="#fff"/>
        <path id="XMLID_1421_" d="M23.455,2.056H21.4V1.5a1.5,1.5,0,1,0-2.99,0v.561H13.456V1.5a1.5,1.5,0,1,0-2.99,0v.561H5.513V1.5a1.5,1.5,0,0,0-2.99,0v.561H.467A.467.467,0,0,0,0,2.523V23.455a.467.467,0,0,0,.467.467H20.044a.467.467,0,0,0,.33-.137l3.411-3.411a.467.467,0,0,0,.137-.33V2.523A.467.467,0,0,0,23.455,2.056ZM19.344,1.5a.561.561,0,1,1,1.121,0V3.551a.561.561,0,1,1-1.121,0ZM11.4,1.5a.561.561,0,1,1,1.121,0V3.551a.561.561,0,1,1-1.121,0Zm-7.943,0a.561.561,0,1,1,1.121,0V3.551a.561.561,0,1,1-1.121,0ZM.934,8.223H9.859a.467.467,0,1,0,0-.934H.934V2.99H2.523v.561a1.5,1.5,0,1,0,2.99,0V2.99h4.953v.561a1.5,1.5,0,1,0,2.99,0V2.99h4.953v.561a1.5,1.5,0,1,0,2.99,0V2.99h1.589v4.3H14.064a.467.467,0,1,0,0,.934h8.924V19.577H20.044a.467.467,0,0,0-.467.467v2.944H.934ZM22.327,20.512l-1.816,1.816V20.512Z" fill="#fff"/>
        <path id="XMLID_1426_" d="M61.836,313.236H59.967a.467.467,0,0,0,0,.935h1.869a.467.467,0,0,0,0-.935Z" transform="translate(-56.72 -298.6)" fill="#fff"/>
        <path id="XMLID_1427_" d="M392.967,314.17h1.869a.467.467,0,1,0,0-.935h-1.869a.467.467,0,1,0,0,.935Z" transform="translate(-374.161 -298.6)" fill="#fff"/>
        <path id="XMLID_1428_" d="M246.467,156.934a.467.467,0,1,0-.33-.137A.471.471,0,0,0,246.467,156.934Z" transform="translate(-234.506 -148.711)" fill="#fff"/>
      </g>
    </g>
  </g>
</svg>
